# xmcd CD database file
# Copyright (C) 1996 Ti Kan
#
# Track frame offsets:
#	150
#	17675
#	30445
#	43607
#	60560
#	74027
#	87985
#	103512
#	116097
#	128622
#
# Disc length: 1930 seconds
#
# Revision: 1
# Processed by: cddbd v1.4b41PL1 Copyright (c) Steve Scherf et al.
# Submitted via: EasyCD 2.21 - (C) 1996 Greg Leichner
#
DISCID=8007880a
DTITLE=Darryl and Don Ellis - No Sir
DYEAR=1900
DGENRE=
TTITLE0=No Sir
TTITLE1=Goodbye Highway
TTITLE2=It's Bigger Than The Both Of Us 
TTITLE3=You Know Why
TTITLE4=Like A Rock To The Window
TTITLE5=Boy, Was I Wrong
TTITLE6=I Want To Be The First One
TTITLE7=Those Letters
TTITLE8=I Knew You'd Come  Around
TTITLE9=Something Moving In Me
EXTD=
EXTT0=
EXTT1=
EXTT2=
EXTT3=
EXTT4=
EXTT5=
EXTT6=
EXTT7=
EXTT8=
EXTT9=
PLAYORDER=
